<svg xmlns="http://www.w3.org/2000/svg" viewBox="0 0 309.3 329.27"><defs><style>.cls-1{fill:#fff;}</style></defs><g id="Layer_2" data-name="Layer 2"><g id="Layer_1-2" data-name="Layer 1"><path class="cls-1" d="M7.8,204.32a3.59,3.59,0,0,1-1.32-.25c-1.91-.72-.9-3.45-2.14-4.77C4.08,199,20.46,164,45.55,125.11c14.78-22.92,31.7-42.74,48.12-57.74C121.34,42.1,146.6,32.5,167,25.92c0,0,10.56-1.23,11.1.74s-20.71,8.29-22.7,8.75c-35.77,8.28-82.9,57.11-105.5,92.15a452.4,452.4,0,0,0-38.59,74.38A3.72,3.72,0,0,1,7.8,204.32Z"/><path class="cls-1" d="M83.54,286.77c-15.08-5.64-24.25-9-39.87-19.11l1.6-5.3C84.93,286.7,134.54,298.68,182.41,301l2,3.35C153.32,307.28,93.11,291.08,83.54,286.77Z"/><path class="cls-1" d="M164.88,12.86a151.1,151.1,0,0,1,29.71,2.94A146.68,146.68,0,0,0,79.67,81.67c-44.64,67.67-25.9,159,41.77,203.67a146.37,146.37,0,0,0,80.83,24.32c2.64,0,5.26-.08,7.88-.22a154.15,154.15,0,0,1-45.94,7,151.78,151.78,0,0,1,.67-303.55m0-12.86a164.64,164.64,0,1,0,138,254.81c2.54-3.86,4.25-7.15,6.43-11.13a134,134,0,1,1-9.67-173.54A165,165,0,0,0,164.88,0Z"/></g></g></svg>