<svg xmlns="http://www.w3.org/2000/svg" viewBox="0 0 332.54 354.02"><defs><style>.cls-1,.cls-2{fill:#040404;}.cls-2{opacity:0.25;}</style></defs><g id="Layer_2" data-name="Layer 2"><g id="Layer_1-2" data-name="Layer 1"><path class="cls-1" d="M177.27,13.83A162.2,162.2,0,0,1,209.21,17,157.66,157.66,0,0,0,85.66,87.81c-48,72.75-27.85,171,44.91,219a157.38,157.38,0,0,0,86.9,26.13c2.83,0,5.66-.07,8.47-.23a165.51,165.51,0,0,1-49.39,7.5,163.18,163.18,0,0,1,.72-326.36m0-13.83A177,177,0,1,0,325.63,274c2.73-4.14,4.57-7.68,6.91-12a144.06,144.06,0,1,1-10.4-186.58A177.39,177.39,0,0,0,177.27,0Z"/><path class="cls-1" d="M8.38,219.67A3.86,3.86,0,0,1,7,219.41c-2.06-.78-1-3.72-2.3-5.14C4.38,214,22,176.36,49,134.51c15.89-24.64,34.09-45.95,51.74-62.07,29.75-27.18,56.91-37.5,78.79-44.57,0,0,11.35-1.33,11.93.79S169.16,37.58,167,38.07C128.56,47,77.89,99.47,53.59,137.14a488.39,488.39,0,0,0-41.49,80A4,4,0,0,1,8.38,219.67Z"/><path class="cls-2" d="M6.83,222l2.88-7.77,55.83-52.93L96,85.48S60.23,102.91,10,214.9C8.78,217.7,8.1,219.1,6.83,222Z"/><path class="cls-1" d="M89.82,308.32c-16.22-6.07-26.07-9.7-42.87-20.55l1.72-5.7c42.65,26.18,96,39.05,147.45,41.52l2.15,3.59C164.85,330.37,100.1,313,89.82,308.32Z"/><path class="cls-2" d="M177.22,321l6.16,1.87c1.4,4.91-55.68,21.08-66.62,16.23a296.57,296.57,0,0,1-62.57-37.68l10.7-5.59L115,314l34.37,8,21.55-.74Z"/></g></g></svg>