<svg xmlns="http://www.w3.org/2000/svg" viewBox="0 0 140.1 144.21"><defs><style>.cls-1{fill:#0a0a0a;}</style></defs><g id="Layer_2" data-name="Layer 2"><g id="Layer_1-2" data-name="Layer 1"><path class="cls-1" d="M17,115.86c.1,5.36-6,12.39-6,12.39s-4.17,5.42-9.18.21S3.71,113.1,3.71,113.1s2.81-4.31,9.68-4.46C13.39,108.64,16.89,110.51,17,115.86Z"/><path class="cls-1" d="M122.81,113.46c.11,5.35,6.47,12.1,6.47,12.1s4.37,5.22,9.18-.21S136,110.09,136,110.09s-3-4.17-9.84-4C126.14,106.07,122.71,108.1,122.81,113.46Z"/><path class="cls-1" d="M125.16,77.67s-.54,7.42-5.61,11-9.77-6.08-9.77-6.08-9.08,0-2.27,13.6.33,23.62.33,23.62-4.15,4.46-8.21,5.84c0,0,6.86,11.76-2.15,11.94,0,0-12.92,16.77-13.41-6.69,0,0-10.37,1.6-13.91-1.79-3.39,3.53-13.83,2.38-13.83,2.38.49,23.45-13.13,7.24-13.13,7.24-9,.19-2.65-11.84-2.65-11.84-4.1-1.21-8.45-5.49-8.45-5.49s-6.89-9.76-.64-23.6S28.6,84.31,28.6,84.31s-4.27,9.88-9.49,6.49S13,80,13,80c-9.33.2-2.11-16.14-2.11-16.14s-2.67-15.13,2.9-15.59,5.33,3.07,7.92,4.75,3.55-.68,3.31-1.55c-1.05-3.68-7.47-7.65-2.8-15S40,23.6,40,23.6c13.43-.28,12.6,17.84,12.6,17.84,2.91,1,5.1,6.38,4.15,10.61-.5,2.29-4,8.39-6.31,8.44s-4-2.56-5.57-2.9a4.32,4.32,0,0,0-4.77,2.1s-1,1.32-.22,5c1.29,5.75,5.48,5.47,9.92,8C53,74.57,52,82.14,57.59,84.14s3.75-8.71,4.85-11.67C63.35,70,67,69.85,68.9,69.7h0c1.94.06,5.54.11,6.55,2.5,1.23,2.91-.11,13.69,5.34,11.46S85,73.9,88.12,71.93c4.33-2.75,8.52-2.66,9.57-8.45.68-3.72-.43-5-.43-5a4.31,4.31,0,0,0-4.85-1.9C90.9,57,89.28,59.68,87,59.73s-6.07-5.92-6.68-8.17c-1.11-4.19.86-9.66,3.72-10.78,0,0-1.6-18.08,11.84-18.37,0,0,13.27,5,18.26,12.13S112.86,46,112,49.66c-.21.89.85,3.19,3.37,1.41s2.12-5.3,7.73-5.07,3.53,15.46,3.53,15.46S134.49,77.47,125.16,77.67Z"/><path class="cls-1" d="M53.08,0s2.69.37,4.27,8.05-1.25,7.88-1.25,7.88-5.12,2.38-6.24-3.8c0,0-7.5,1.36-5.56-4.44C45.54,4,48.31.1,53.08,0Z"/><path class="cls-1" d="M81.44.29s-2.68.49-3.93,8.23,1.58,7.82,1.58,7.82,5.21,2.16,6.07-4.06c0,0,7.55,1,5.37-4.67C89.14,3.94,86.21.19,81.44.29Z"/></g></g></svg>